<?xml version="1.0" encoding="utf-8"?>
<!-- Generator: Adobe Illustrator 19.2.1, SVG Export Plug-In . SVG Version: 6.00 Build 0)  -->
<svg version="1.1" id="Layer_1" xmlns="http://www.w3.org/2000/svg" xmlns:xlink="http://www.w3.org/1999/xlink" x="0px" y="0px"
	 viewBox="0 0 215 69.4" style="enable-background:new 0 0 215 69.4;" xml:space="preserve">
<style type="text/css">
	.st0{fill:#2B52A3;}
</style>
<g>
	<g>
		<path class="st0" d="M47.2,25.5h-1.8V37h1.8c0.5,0,1.8-0.1,1.8-1.3v-8.9C49,25.7,48,25.5,47.2,25.5z"/>
		<path class="st0" d="M63.6,17.4h-5.8c-3.2,0-5.8-2.6-5.8-5.8V5.8c0-3.2-2.6-5.8-5.8-5.8H23.1c-3.2,0-5.8,2.6-5.8,5.8v5.8
			c0,3.2-2.6,5.8-5.8,5.8H5.8C2.6,17.4,0,20,0,23.1v23.1c0,3.2,2.6,5.8,5.8,5.8h5.8c3.2,0,5.8,2.6,5.8,5.8v5.8
			c0,3.2,2.6,5.8,5.8,5.8h23.1c3.2,0,5.8-2.6,5.8-5.8v-5.8c0-3.2,2.6-5.8,5.8-5.8h5.8c3.2,0,5.8-2.6,5.8-5.8V23.1
			C69.4,20,66.8,17.4,63.6,17.4z M38.3,43.4c0,1.4-0.1,2.6-0.9,3.4c-0.8,0.8-2.2,1.2-4.2,1.2c-1.5,0-3-0.7-3.7-1.6
			c-0.7,0.9-2.3,1.6-3.8,1.6c-1.9,0-3.4-0.4-4.1-1.2c-0.9-0.9-0.9-2.3-0.9-3.4V23.7c0-0.6,0.5-1,1-1h1.5c0.6,0,1,0.5,1,1v20
			c0,1.2,1.2,1.3,1.8,1.3c0.5,0,1.7-0.1,1.7-1.3v-20c0-0.6,0.5-1,1-1h1.4c0.5,0,1,0.4,1,0.9l0,0l0,0.1v20c0,1.2,1.2,1.3,1.7,1.3
			c0.5,0,1.8-0.1,1.8-1.3v-20c0-0.6,0.5-1,1-1h1.5c0.6,0,1.1,0.5,1.1,1V43.4z M52.6,35.2c0,1.2-0.1,2.5-0.9,3.4
			c-0.9,0.8-2.4,1.2-4.5,1.2h-1.8V47c0,0.6-0.5,1.1-1,1.1h-1.5c-0.6,0-1.1-0.5-1.1-1.1V23.7c0-0.6,0.5-1,1.1-1h4.3
			c2.2,0,3.6,0.4,4.5,1.2c0.8,0.9,0.9,2.2,0.9,3.4V35.2z"/>
	</g>
	<g>
		<path class="st0" d="M88,17.3c-2.5,0-4.3,0.5-5.3,1.5c-1.1,1.1-1.2,2.7-1.2,4.2v6.4c0,2.3,0.9,4,2.7,5.1l4.8,3
			c0.7,0.5,1.1,1.3,1.1,2.3v7c0,0.8-0.2,1.5-2,1.5c-1.8,0-2.1-0.8-2.1-1.5v-6.7c0-0.3-0.2-0.5-0.5-0.5h-3.5c-0.3,0-0.5,0.2-0.5,0.5
			v6c0,1.6,0.2,3.2,1.2,4.2c1,1,2.8,1.5,5.3,1.5c2.5,0,4.3-0.5,5.3-1.5c1.1-1.1,1.2-2.8,1.2-4.2v-7.2c0-2.2-0.9-3.8-2.7-5l-4.8-3
			c-0.8-0.5-1.2-1.3-1.2-2.5v-6.3c0-0.7,0.2-1.5,2.1-1.5c1.8,0,2,0.7,2,1.5v5.1c0,0.3,0.2,0.5,0.5,0.5h3.6c0.3,0,0.5-0.2,0.5-0.5
			v-4.4c0-1.4-0.1-3.1-1.2-4.2C92.2,17.8,90.5,17.3,88,17.3z"/>
		<path class="st0" d="M104.2,17.7h-3.5c-0.3,0-0.5,0.2-0.5,0.5v33c0,0.3,0.2,0.5,0.5,0.5h3.5c0.3,0,0.5-0.2,0.5-0.5v-33
			C104.6,17.9,104.4,17.7,104.2,17.7z"/>
		<path class="st0" d="M121.1,17.7h-12.3c-0.3,0-0.5,0.2-0.5,0.5v2.6c0,0.3,0.2,0.5,0.5,0.5h3.9v29.9c0,0.3,0.2,0.5,0.5,0.5h3.5
			c0.3,0,0.5-0.2,0.5-0.5V21.3h3.9c0.3,0,0.5-0.2,0.5-0.5v-2.6C121.6,17.9,121.4,17.7,121.1,17.7z"/>
		<path class="st0" d="M135.2,17.7h-9.5c-0.3,0-0.5,0.2-0.5,0.5v33c0,0.3,0.2,0.5,0.5,0.5h9.5c0.3,0,0.5-0.2,0.5-0.5v-2.6
			c0-0.3-0.2-0.5-0.5-0.5h-5.5v-12h5.4c0.3,0,0.5-0.2,0.5-0.5V33c0-0.3-0.2-0.5-0.5-0.5h-5.4V21.3h5.5c0.3,0,0.5-0.2,0.5-0.5v-2.6
			C135.7,17.9,135.4,17.7,135.2,17.7z"/>
		<path class="st0" d="M153.4,17.3c-2.5,0-4.3,0.5-5.3,1.5c-1.1,1.1-1.2,2.7-1.2,4.2v23.2c0,1.5,0.1,3.1,1.2,4.2
			c1,1,2.8,1.5,5.3,1.5c2.5,0,4.3-0.5,5.3-1.5c1.1-1.1,1.2-2.8,1.2-4.2v-6c0-0.3-0.2-0.5-0.5-0.5H156c-0.3,0-0.5,0.2-0.5,0.5v6.6
			c0,0.8-0.2,1.5-2,1.5c-1.8,0-2.1-0.8-2.1-1.5V22.4c0-0.7,0.2-1.5,2.1-1.5c1.8,0,2,0.7,2,1.5v6.3c0,0.3,0.2,0.5,0.5,0.5h3.6
			c0.3,0,0.5-0.2,0.5-0.5v-5.6c0-1.4-0.1-3.1-1.2-4.2C157.7,17.8,156,17.3,153.4,17.3z"/>
		<path class="st0" d="M172.7,17.3c-2.5,0-4.3,0.5-5.3,1.5c-1.1,1.1-1.2,2.7-1.2,4.2v28.1c0,0.3,0.2,0.5,0.5,0.5h3.5
			c0.3,0,0.5-0.2,0.5-0.5V37.9h4.1v13.3c0,0.3,0.2,0.5,0.5,0.5h3.5c0.3,0,0.5-0.2,0.5-0.5V23.1c0-1.5-0.1-3.1-1.2-4.2
			C177,17.9,175.2,17.3,172.7,17.3z M174.7,34.3h-4.1V22.4c0-0.7,0.2-1.5,2.1-1.5c1.8,0,2,0.8,2,1.5V34.3z"/>
		<path class="st0" d="M191.9,17.7h-6.1c-0.3,0-0.5,0.2-0.5,0.5v33c0,0.3,0.2,0.5,0.5,0.5h3.5c0.3,0,0.5-0.2,0.5-0.5V36.3h2.1
			c0.5,0,1.1,0.2,1.4,0.6c0.4,0.4,0.6,0.9,0.6,1.5v12.8c0,0.3,0.2,0.5,0.5,0.5h3.6c0.3,0,0.5-0.2,0.5-0.5V38.3c0-2-1-3.2-2.2-3.8
			c1.2-0.6,2.2-1.9,2.2-3.9v-7.2c0-1.5-0.1-3.1-1.1-4.2C196.3,18.2,194.5,17.7,191.9,17.7z M193.9,30.6c0,0.6-0.2,1.1-0.6,1.5
			c-0.3,0.4-0.8,0.6-1.4,0.6h-2.1V21.1h2.1c0.6,0,1.1,0.2,1.4,0.6c0.4,0.4,0.6,0.9,0.6,1.4V30.6z"/>
		<path class="st0" d="M214.5,21.3c0.3,0,0.5-0.2,0.5-0.5v-2.6c0-0.3-0.2-0.5-0.5-0.5H205c-0.3,0-0.5,0.2-0.5,0.5v33
			c0,0.3,0.2,0.5,0.5,0.5h9.5c0.3,0,0.5-0.2,0.5-0.5v-2.6c0-0.3-0.2-0.5-0.5-0.5H209v-12h5.4c0.3,0,0.5-0.2,0.5-0.5V33
			c0-0.3-0.2-0.5-0.5-0.5H209V21.3H214.5z"/>
	</g>
</g>
</svg>
